PathFileType	4	(X/Y/Z)	/Users/niels/Desktop/University/Third Semester/Perception and Action/Exam/Gymnastics Motion Tracking/Code for Gym Tracking/Scripts/Analyzed Data/Start Salto/st_salto_bad_id11_3_Sports2D/st_salto_bad_id11_3_Sports2D_px_person00.trc
DataRate	CameraRate	NumFrames	NumMarkers	Units	OrigDataRate	OrigDataStartFrame	OrigNumFrames
29.8051948051948	29.8051948051948	8	22	m	29.8051948051948	0	154
Frame#	Time	Hip			RHip			RKnee			RAnkle			RBigToe			RSmallToe			RHeel			LHip			LKnee			LAnkle			LBigToe			LSmallToe			LHeel			Neck			Head			Nose			RShoulder			RElbow			RWrist			LShoulder			LElbow			LWrist		
		X1	Y1	Z1	X2	Y2	Z2	X3	Y3	Z3	X4	Y4	Z4	X5	Y5	Z5	X6	Y6	Z6	X7	Y7	Z7	X8	Y8	Z8	X9	Y9	Z9	X10	Y10	Z10	X11	Y11	Z11	X12	Y12	Z12	X13	Y13	Z13	X14	Y14	Z14	X15	Y15	Z15	X16	Y16	Z16	X17	Y17	Z17	X18	Y18	Z18	X19	Y19	Z19	X20	Y20	Z20	X21	Y21	Z21	X22	Y22	Z22
0	0.0	-0.15157231868091364	-0.5542469182904363	0.0	0.022066044168893566	-0.5616830560517901	0.0	0.3743082456267034	-0.22792934250615915	0.0	0.0126171721317636	-0.3098646234410844	0.0	-0.01958547545599972	-0.5095119950074449	0.0	0.0002623637681755866	-0.4933886526917604	0.0	-0.025176045885299463	-0.2822869782693936	0.0	-0.22783189980046864	-0.5902014686469228	0.0	-0.14711427266280738	-0.6653314465285731	0.0	-0.3508352937351049	-0.5721104729354094	0.0	-0.4286171717773864	-0.7255958364449574	0.0	-0.41125222733785416	-0.7268363641751454	0.0	-0.3384355043427657	-0.5615778177912799	0.0	-0.07775524436517035	-0.632854981281236	0.0	-0.20097819565406075	-0.380683564110187	0.0	-0.21910729634563086	-0.7388603159609965	0.0	0.023022673947448294	-0.5293124911078219	0.0	0.005510465939444375	-0.29211397976413594	0.0	0.45204171373925267	-0.21527419186286495	0.0	-0.2185105135665906	-0.4930198993651962	0.0	-0.15361230014208033	-0.42168143834831695	0.0	-0.08619814359809318	-0.2799225079883976	0.0
1	0.03355119825708061	-0.1285015043561453	-0.547534775640427	0.0	0.017404561394610413	-0.5551025343149983	0.0	0.32162644126030976	-0.29266821565162576	0.0	0.009927698394665393	-0.3747752702339545	0.0	-0.013538885193683474	-0.5495697450716077	0.0	0.0020502563139295146	-0.534298386049525	0.0	-0.020322061123485526	-0.3516950247733957	0.0	-0.19021061887261395	-0.5781569389819787	0.0	-0.10789418439182336	-0.6529564885983637	0.0	-0.29102996026864186	-0.5892793706762474	0.0	-0.3531388710670165	-0.7261921533247595	0.0	-0.3378256220668729	-0.7263343238810238	0.0	-0.2830722370461858	-0.5813472099002953	0.0	-0.06730178439573925	-0.589259439680243	0.0	-0.1687583164047208	-0.36432491590262034	0.0	-0.1828392352114784	-0.67415476580141	0.0	0.017540470655893974	-0.5047541099047087	0.0	0.01038100401319471	-0.31197635866192786	0.0	0.39252304558736134	-0.24179449483242066	0.0	-0.18259214365640417	-0.47389203335900065	0.0	-0.12207330675929597	-0.41893732323723437	0.0	-0.054351447763753516	-0.2958049758391973	0.0
2	0.06710239651416122	-0.1055596694601007	-0.5408076428131028	0.0	0.012545206883069976	-0.5484894063236208	0.0	0.2689088591032764	-0.3572882858549912	0.0	0.0065820764985203865	-0.4394653645839915	0.0	-0.00826542881012516	-0.589602607394127	0.0	0.003083807154950198	-0.5752101785547215	0.0	-0.01624905244349779	-0.42086412617222496	0.0	-0.15269892363165638	-0.5660844868509708	0.0	-0.06875005458652858	-0.6405009622625378	0.0	-0.23134721730194263	-0.6064119094178048	0.0	-0.2777607422345069	-0.7267971690326276	0.0	-0.2645039234379192	-0.7258327764681665	0.0	-0.227854086760948	-0.6010904092286171	0.0	-0.057016993364577384	-0.5456077469928903	0.0	-0.13672132562750317	-0.34784399916526226	0.0	-0.14670639015832287	-0.6094015228567313	0.0	0.011755568271790147	-0.4801112668234321	0.0	0.014464988288183423	-0.3316790095514889	0.0	0.33203659431141236	-0.2684024410367276	0.0	-0.146862463072186	-0.4546957208933222	0.0	-0.0907983567481361	-0.4161637867137266	0.0	-0.02280752456289702	-0.31174785152676193	0.0
3	0.10065359477124183	-0.08259439696557759	-0.5340272204047477	0.0	0.007748490606938858	-0.5417725056714141	0.0	0.21713910043320225	-0.420994991644688	0.0	0.0025542219533120393	-0.5031934646453284	0.0	-0.0039014771654901307	-0.6292575072186224	0.0	0.0032540407048381134	-0.6158268564866649	0.0	-0.013236647226306872	-0.48903676554998365	0.0	-0.11522476106777345	-0.5539717092634835	0.0	-0.02961318935912371	-0.627992841443539	0.0	-0.17169073201697138	-0.6234116795235599	0.0	-0.20239947996370458	-0.7274312341593783	0.0	-0.19121459882281897	-0.7253535188212917	0.0	-0.17264619566588382	-0.6207306748674923	0.0	-0.046629062825019815	-0.5021024736456279	0.0	-0.10479780353682232	-0.33114721796069735	0.0	-0.11056929790647801	-0.5449696764960489	0.0	0.005853105234942484	-0.45540132554083584	0.0	0.017298224822713246	-0.35093371810256985	0.0	0.2705352170711124	-0.2952639754027146	0.0	-0.1112577277160229	-0.4354666804288815	0.0	-0.05972826345018736	-0.41344785963858777	0.0	0.008422946023435013	-0.3279879383301395	0.0
4	0.13420479302832244	-0.05929637176184198	-0.5271584289543094	0.0	0.003766793918004854	-0.5348624167400753	0.0	0.1687503102002482	-0.4818271349156094	0.0	-0.001626924483576417	-0.5641802248661651	0.0	-0.00012080625784006131	-0.6675673367845442	0.0	0.002938858075872587	-0.655267427372645	0.0	-0.011244813399148483	-0.5543815696698063	0.0	-0.07775230438890657	-0.5418810924972681	0.0	0.009515119309935094	-0.6156218686654945	0.0	-0.11207083715466977	-0.6400090171773642	0.0	-0.1272095845802178	-0.7281432487860168	0.0	-0.11811573794750808	-0.7249606325261855	0.0	-0.11733675900584267	-0.6400173987081444	0.0	-0.035451436740057844	-0.4594719048559663	0.0	-0.0728590212694507	-0.31421904290748526	0.0	-0.0742133519784212	-0.4820447709087408	0.0	0.0005475367681502426	-0.430866428757406	0.0	0.01853384920327668	-0.369141077712991	0.0	0.2090834630437092	-0.32249616176934964	0.0	-0.07567860475438919	-0.41645326443059194	0.0	-0.028684985298811284	-0.4110074744409122	0.0	0.03938713506987969	-0.3448894196819064	0.0
5	0.16775599128540306	-0.03512409361447428	-0.5201867160980194	0.0	0.002051174348404117	-0.527669959280243	0.0	0.12803045087804996	-0.5363835774234104	0.0	-0.004466300660470406	-0.6193987612094136	0.0	0.004290000764170199	-0.7027819719436449	0.0	0.0034286742456073743	-0.6918930025708739	0.0	-0.009514200222850929	-0.6137776663436818	0.0	-0.040273547868626254	-0.529993003675112	0.0	0.04855280960744669	-0.6038232880135613	0.0	-0.052622735894052614	-0.65572434995824	0.0	-0.052656638172782995	-0.7290188529936967	0.0	-0.04566302073250822	-0.7247763850758315	0.0	-0.061823042031290715	-0.65848274496626	0.0	-0.02221584592060529	-0.4191603478306845	0.0	-0.04064717167181967	-0.2972065256276141	0.0	-0.0373000633123663	-0.42290060008476626	0.0	-0.002652677408386905	-0.40708613753566186	0.0	0.01829758206241806	-0.38535998524039605	0.0	0.15057689240108277	-0.35008159107201314	0.0	-0.03993102988528007	-0.39821489022090073	0.0	0.0027450074398499484	-0.40923029717731885	0.0	0.07031142859932099	-0.3629234501265556	0.0
6	0.20130718954248367	-0.009307750362369121	-0.5131491387368795	0.0	0.00475281940156421	-0.5201587237334717	0.0	0.10076773281665416	-0.5801838841431367	0.0	-0.0031497862960735245	-0.664958501144707	0.0	0.011880786900583933	-0.7325055590459507	0.0	0.0073571978705977755	-0.7234069759074824	0.0	-0.006049917852989244	-0.6632114814307343	0.0	-0.00279714751695955	-0.5186343789857283	0.0	0.087334897447011	-0.593315741245542	0.0	0.00639275784677547	-0.6699210272742024	0.0	0.02046707411250052	-0.7301716300621249	0.0	0.02538314797999206	-0.7249767673066988	0.0	-0.006014506128098035	-0.6754797974154927	0.0	-0.00509591317422205	-0.3833010320718403	0.0	-0.007719673830881224	-0.2805302860506528	0.0	0.0006321569442073571	-0.37080926823827215	0.0	-0.0013556731799849971	-0.3850294447957444	0.0	0.0177830726442515	-0.398491983110523	0.0	0.10029118113396214	-0.37772927788632926	0.0	-0.003670901115699981	-0.3816550120442827	0.0	0.035311329316630426	-0.4086489964006747	0.0	0.10175395045572755	-0.3825216670211852	0.0
7	0.23485838779956428	0.018972588939112786	-0.5061790458422083	0.0	0.014263106533714705	-0.5124427528234943	0.0	0.09241122472225596	-0.609230950229023	0.0	0.006455776201481941	-0.6975825036950876	0.0	0.02675807228344575	-0.7544366250946327	0.0	0.018871783673462077	-0.7475096656891763	0.0	0.0028318006371396676	-0.6993013951981241	0.0	0.034663096449201805	-0.5082587684577845	0.0	0.12563461812536586	-0.5850132238221829	0.0	0.0646298539694852	-0.6820275563628755	0.0	0.09116808713621326	-0.7317029942324474	0.0	0.09409133159230766	-0.7257454969748357	0.0	0.050129112799261306	-0.6903813599106575	0.0	0.017857075106371786	-0.35421926841342904	0.0	0.026542069355647076	-0.26498625083937805	0.0	0.04005806413685618	-0.3291964308772296	0.0	0.007354008279834348	-0.36593936248578995	0.0	0.020012659153023457	-0.4078301690305847	0.0	0.0657019173534811	-0.4046973821020927	0.0	0.03360828793627775	-0.3678870656084591	0.0	0.07010243707534314	-0.4097867592674648	0.0	0.13473486798021753	-0.4037334458300298	0.0
